<svg width="1227" height="244" viewBox="0 0 1227 244" fill="none" xmlns="http://www.w3.org/2000/svg">
<path d="M254.391 94.0352L238.395 90.3438L239.361 83.6641H326.812L324.088 111.789L316.441 110.646L312.838 91.75H271.441V133.586H296.93L300.621 123.039L308.971 121.809L305.982 155.998L298.512 157.141L295.523 141.76H271.441V184.562H314.947L323.561 164.348L330.855 165.49L328.219 193H239.01L239.713 186.496L254.391 182.365V94.0352ZM352.895 111.965L352.192 83.6641H449.838L446.85 113.371L438.5 112.053L435.161 91.75H408.354V182.98L424.614 185.969L423.383 193H376.01L376.625 186.496L391.479 182.365V91.75H365.551L360.893 113.107L352.895 111.965ZM523.645 185.705L522.766 193H474.602L475.569 186.496L490.247 182.365V96.3203L475.218 93.6836L476.096 86.916C484.182 85.627 491.419 84.6309 497.805 83.9277C504.192 83.2246 510.315 82.873 516.175 82.873C530.179 82.873 541.018 84.9824 548.694 89.2012C556.429 93.4199 560.296 100.393 560.296 110.119C560.296 113.986 559.3 117.883 557.307 121.809C555.374 125.734 552.503 129.338 548.694 132.619C544.944 135.9 540.403 138.479 535.071 140.354V140.441L550.891 162.326C555.052 168.127 558.245 172.375 560.471 175.07C562.698 177.766 565.071 180.051 567.591 181.926C570.11 183.742 573.128 185.178 576.643 186.232L579.544 187.111L578.225 193.088C574.886 194.26 571.37 194.846 567.679 194.846C561.175 194.846 555.374 192.736 550.276 188.518C545.237 184.24 540.608 178.322 536.389 170.764L522.415 145.803H507.122V181.926L523.645 185.705ZM510.813 90.4316C508.88 90.5488 507.649 90.6367 507.122 90.6953V137.805H524.524C529.446 136.164 533.606 133.41 537.005 129.543C540.403 125.676 542.102 120.842 542.102 115.041C542.102 110.236 541.136 105.959 539.202 102.209C537.268 98.459 534.456 95.5293 530.764 93.4199C527.132 91.3105 522.766 90.2559 517.669 90.2559C515.091 90.2559 512.805 90.3145 510.813 90.4316ZM684.904 187.639C676.29 192.795 666.124 195.373 654.405 195.373C644.503 195.373 635.714 192.883 628.038 187.902C620.362 182.863 614.415 176.037 610.196 167.424C605.978 158.752 603.868 149.143 603.868 138.596C603.868 127.346 606.154 117.385 610.724 108.713C615.353 100.041 621.945 93.3027 630.499 88.498C639.054 83.6348 649.073 81.2031 660.558 81.2031C670.812 81.2031 679.777 83.8105 687.452 89.0254C695.187 94.1816 701.105 101.154 705.206 109.943C709.308 118.674 711.359 128.225 711.359 138.596C711.359 148.85 709.103 158.312 704.591 166.984C700.079 175.598 693.517 182.482 684.904 187.639ZM676.29 97.375C670.958 92.2188 664.308 89.6406 656.339 89.6406C634.366 89.6406 623.38 104.289 623.38 133.586C623.38 142.727 624.611 151.281 627.071 159.25C629.591 167.219 633.487 173.693 638.761 178.674C644.093 183.596 650.773 186.057 658.8 186.057C670.987 186.057 679.542 181.984 684.464 173.84C689.386 165.637 691.847 155.236 691.847 142.639C691.847 133.791 690.587 125.324 688.068 117.238C685.548 109.152 681.622 102.531 676.29 97.375ZM756.689 94.0352L740.693 90.3438L741.66 83.6641H789.472L788.593 90.3438L773.828 93.6836V132.18H828.935V94.0352L812.851 90.3438L813.818 83.6641H861.806L860.752 90.3438L846.074 93.6836V182.98L862.07 185.969L861.191 193H813.466L814.345 186.496L828.935 182.365V141.232H773.828V182.98L790 185.969L788.857 193H741.308L742.011 186.496L756.689 182.365V94.0352ZM900.457 151.779V94.0352L884.285 90.3438L885.428 83.6641H933.064L932.273 90.3438L917.42 93.6836V148.176C917.42 160.246 920.145 169.211 925.594 175.07C931.102 180.871 938.572 183.771 948.006 183.771C957.146 183.771 964.178 181.047 969.1 175.598C974.021 170.148 976.512 161.828 976.57 150.637L976.834 94.0352L960.75 90.3438L961.629 83.6641H1003.64L1002.67 90.3438L988.084 93.6836L987.645 147.736C987.527 163.791 983.924 175.744 976.834 183.596C969.744 191.447 958.67 195.373 943.611 195.373C931.072 195.373 920.73 192.297 912.586 186.145C904.5 179.934 900.457 168.479 900.457 151.779ZM1027.09 111.965L1026.38 83.6641H1124.03L1121.04 113.371L1112.69 112.053L1109.35 91.75H1082.55V182.98L1098.81 185.969L1097.57 193H1050.2L1050.82 186.496L1065.67 182.365V91.75H1039.74L1035.08 113.107L1027.09 111.965ZM1198.8 190.979C1192.83 193.732 1186.47 195.109 1179.73 195.109C1173.64 195.109 1167.92 194.143 1162.59 192.209C1157.32 190.275 1153.19 187.844 1150.2 184.914L1151.34 159.689L1160.31 160.92L1163.74 177.443C1165.43 179.904 1167.9 181.984 1171.12 183.684C1174.4 185.383 1177.97 186.232 1181.84 186.232C1185.18 186.232 1188.43 185.559 1191.6 184.211C1194.82 182.863 1197.46 180.812 1199.51 178.059C1201.62 175.305 1202.67 171.877 1202.67 167.775C1202.67 164.553 1201.7 161.682 1199.77 159.162C1197.84 156.584 1195.43 154.357 1192.56 152.482C1189.75 150.607 1185.85 148.322 1180.87 145.627C1174.72 142.346 1169.74 139.416 1165.93 136.838C1162.18 134.201 1158.96 130.861 1156.26 126.818C1153.63 122.775 1152.31 118 1152.31 112.492C1152.31 106.105 1153.92 100.568 1157.14 95.8809C1160.37 91.1934 1164.58 87.6191 1169.8 85.1582C1175.01 82.6973 1180.58 81.4668 1186.5 81.4668C1195.99 81.4668 1204.25 84.3965 1211.28 90.2559C1211.11 93.0098 1210.79 97.1992 1210.32 102.824C1209.85 108.449 1209.53 112.521 1209.35 115.041L1200.65 113.986L1198.45 97.1992C1197.87 96.0859 1196.81 94.8848 1195.29 93.5957C1193.82 92.248 1192.04 91.1348 1189.93 90.2559C1187.82 89.3184 1185.68 88.8496 1183.51 88.8496C1178.82 88.8496 1174.99 90.2559 1172 93.0684C1169.01 95.8809 1167.51 100.041 1167.51 105.549C1167.51 109.768 1168.63 113.459 1170.85 116.623C1173.14 119.787 1175.89 122.453 1179.12 124.621C1182.4 126.789 1186.85 129.396 1192.48 132.443C1198.33 135.549 1202.99 138.303 1206.45 140.705C1209.91 143.049 1212.84 145.949 1215.24 149.406C1217.64 152.863 1218.84 156.936 1218.84 161.623C1218.84 168.186 1217 174.016 1213.31 179.113C1209.67 184.211 1204.84 188.166 1198.8 190.979Z" fill="black"/>
<path d="M5.9719 69.0625L108.333 0L210.695 69.0625C212.537 70.3044 214.045 71.9805 215.087 73.943C216.128 75.9054 216.671 78.0939 216.667 80.3156V230.208C216.667 233.8 215.24 237.244 212.7 239.784C210.161 242.323 206.717 243.75 203.125 243.75H13.5417C9.95022 243.75 6.50584 242.323 3.96629 239.784C1.42673 237.244 2.27099e-05 233.8 2.27099e-05 230.208V80.3156C-0.00404566 78.0939 0.538567 75.9054 1.58001 73.943C2.62146 71.9805 4.12975 70.3044 5.9719 69.0625Z" fill="#EAB308"/>
<path d="M22.7969 221H192.87" stroke="black" stroke-width="11" stroke-linecap="round"/>
<mask id="path-4-outside-1_1915_424" maskUnits="userSpaceOnUse" x="26" y="73" width="167" height="128" fill="black">
<rect fill="white" x="26" y="73" width="167" height="128"/>
<path d="M79.2969 192H37.1094L38.0762 185.496L52.7539 181.365L59.1699 93.0352L43.0859 89.3438L43.9648 82.6641H79.3848L86.2402 99.7148L109.268 164.49L136.25 96.8145L142.49 82.6641H177.207L176.328 89.3438L161.562 92.6836L166.133 181.98L182.129 184.969L181.25 192H134.141L135.107 185.496L149.697 181.365L144.775 103.758L111.289 187.605L100.039 189.275L69.8926 107.01L64.3555 181.98L80.4395 184.969L79.2969 192Z"/>
</mask>
<path d="M79.2969 192H37.1094L38.0762 185.496L52.7539 181.365L59.1699 93.0352L43.0859 89.3438L43.9648 82.6641H79.3848L86.2402 99.7148L109.268 164.49L136.25 96.8145L142.49 82.6641H177.207L176.328 89.3438L161.562 92.6836L166.133 181.98L182.129 184.969L181.25 192H134.141L135.107 185.496L149.697 181.365L144.775 103.758L111.289 187.605L100.039 189.275L69.8926 107.01L64.3555 181.98L80.4395 184.969L79.2969 192Z" fill="#EAB308"/>
<path d="M79.2969 192V201H86.9524L88.1804 193.444L79.2969 192ZM37.1094 192L28.2072 190.677L26.6726 201H37.1094V192ZM38.0762 185.496L35.638 176.833L30.0305 178.411L29.174 184.173L38.0762 185.496ZM52.7539 181.365L55.1921 190.029L61.2726 188.317L61.7303 182.017L52.7539 181.365ZM59.1699 93.0352L68.1463 93.6872L68.7054 85.9896L61.1832 84.2632L59.1699 93.0352ZM43.0859 89.3438L34.1628 88.1697L33.0951 96.2848L41.0727 98.1157L43.0859 89.3438ZM43.9648 82.6641V73.6641H36.0715L35.0418 81.49L43.9648 82.6641ZM79.3848 82.6641L87.7351 79.3067L85.4664 73.6641H79.3848V82.6641ZM86.2402 99.7148L94.7203 96.7002L94.6589 96.5275L94.5906 96.3575L86.2402 99.7148ZM109.268 164.49L100.787 167.505L108.785 190.002L117.628 167.823L109.268 164.49ZM136.25 96.8145L128.015 93.183L127.95 93.331L127.89 93.4813L136.25 96.8145ZM142.49 82.6641V73.6641H136.623L134.255 79.0326L142.49 82.6641ZM177.207 82.6641L186.13 83.8382L187.469 73.6641H177.207V82.6641ZM176.328 89.3438L178.314 98.122L184.433 96.7379L185.251 90.5178L176.328 89.3438ZM161.562 92.6836L159.577 83.9053L152.187 85.5769L152.574 93.1436L161.562 92.6836ZM166.133 181.98L157.145 182.44L157.507 189.525L164.48 190.827L166.133 181.98ZM182.129 184.969L191.059 186.085L192.11 177.678L183.782 176.122L182.129 184.969ZM181.25 192V201H189.195L190.18 193.116L181.25 192ZM134.141 192L125.238 190.677L123.704 201H134.141V192ZM135.107 185.496L132.656 176.837L127.06 178.421L126.205 184.173L135.107 185.496ZM149.697 181.365L152.149 190.025L159.139 188.046L158.679 180.796L149.697 181.365ZM144.775 103.758L153.757 103.188L136.417 100.42L144.775 103.758ZM111.289 187.605L112.611 196.508L117.728 195.748L119.647 190.943L111.289 187.605ZM100.039 189.275L91.5886 192.372L94.1105 199.254L101.361 198.178L100.039 189.275ZM69.8926 107.01L78.343 103.913L60.917 106.347L69.8926 107.01ZM64.3555 181.98L55.3799 181.318L54.7862 189.357L62.7115 190.829L64.3555 181.98ZM80.4395 184.969L89.3229 186.412L90.7342 177.727L82.0835 176.12L80.4395 184.969ZM79.2969 183H37.1094V201H79.2969V183ZM46.0116 193.323L46.9784 186.819L29.174 184.173L28.2072 190.677L46.0116 193.323ZM40.5144 194.16L55.1921 190.029L50.3157 172.702L35.638 176.833L40.5144 194.16ZM61.7303 182.017L68.1463 93.6872L50.1936 92.3831L43.7776 180.713L61.7303 182.017ZM61.1832 84.2632L45.0992 80.5718L41.0727 98.1157L57.1567 101.807L61.1832 84.2632ZM52.009 90.5178L52.8879 83.8382L35.0418 81.49L34.1628 88.1697L52.009 90.5178ZM43.9648 91.6641H79.3848V73.6641H43.9648V91.6641ZM71.0344 86.0214L77.8899 103.072L94.5906 96.3575L87.7351 79.3067L71.0344 86.0214ZM77.7601 102.729L100.787 167.505L117.748 161.476L94.7203 96.7002L77.7601 102.729ZM117.628 167.823L144.61 100.148L127.89 93.4813L100.908 161.157L117.628 167.823ZM144.485 100.446L150.725 86.2956L134.255 79.0326L128.015 93.183L144.485 100.446ZM142.49 91.6641H177.207V73.6641H142.49V91.6641ZM168.284 81.49L167.405 88.1697L185.251 90.5178L186.13 83.8382L168.284 81.49ZM174.343 80.5655L159.577 83.9053L163.548 101.462L178.314 98.122L174.343 80.5655ZM152.574 93.1436L157.145 182.44L175.121 181.52L170.551 92.2236L152.574 93.1436ZM164.48 190.827L180.476 193.816L183.782 176.122L167.786 173.134L164.48 190.827ZM173.198 183.852L172.32 190.884L190.18 193.116L191.059 186.085L173.198 183.852ZM181.25 183H134.141V201H181.25V183ZM143.043 193.323L144.01 186.819L126.205 184.173L125.238 190.677L143.043 193.323ZM137.559 194.156L152.149 190.025L147.245 172.706L132.656 176.837L137.559 194.156ZM158.679 180.796L153.757 103.188L135.793 104.327L140.715 181.935L158.679 180.796ZM136.417 100.42L102.931 184.267L119.647 190.943L153.133 107.096L136.417 100.42ZM109.968 178.703L98.7176 180.373L101.361 198.178L112.611 196.508L109.968 178.703ZM108.49 186.179L78.343 103.913L61.4421 110.106L91.5886 192.372L108.49 186.179ZM60.917 106.347L55.3799 181.318L73.331 182.643L78.8681 107.673L60.917 106.347ZM62.7115 190.829L78.7955 193.817L82.0835 176.12L65.9995 173.132L62.7115 190.829ZM71.556 183.525L70.4134 190.556L88.1804 193.444L89.3229 186.412L71.556 183.525Z" fill="black" mask="url(#path-4-outside-1_1915_424)"/>
<path d="M243 221H1221" stroke="black" stroke-width="11" stroke-linecap="round"/>
</svg>
